<svg width="138" height="43" viewBox="0 0 138 43" fill="none" xmlns="http://www.w3.org/2000/svg">
<path d="M20.3297 16.9483C18.2552 18.684 16.3675 19.7696 13.3664 19.7696H13.3457C11.1606 19.7696 9.14145 18.9813 7.68242 17.5499C6.25104 16.1393 5.45583 14.2308 5.45583 12.1702V12.1079C5.45583 10.0611 6.24412 8.15263 7.68242 6.74199C9.14145 5.31062 11.1537 4.52232 13.3388 4.51541H13.3526C15.7866 4.51541 17.8749 5.35902 20.1361 7.22603L20.4265 7.46805L23.8286 3.94147L23.5036 3.65796C21.4153 1.8601 18.5941 0.0345743 13.4079 0.0345743H13.3803C9.64624 0.0345743 6.22338 1.30691 3.75477 3.59573C1.32765 5.84998 0 8.89252 0 12.1702V12.2393C0 15.517 1.35531 18.5595 3.79626 20.793C6.24412 23.0403 9.58401 24.2781 13.2074 24.2781H13.2281C17.4946 24.2781 20.627 23.0334 23.718 20.143L24.043 19.8457L20.6063 16.7271L20.3366 16.9552L20.3297 16.9483ZM39.4078 0C35.6323 0 32.161 1.27925 29.6371 3.58882C27.1685 5.84998 25.8132 8.8856 25.8132 12.1425V12.2047C25.827 19.0643 31.6355 24.2435 39.3456 24.2435H39.3594C43.1418 24.2435 46.6131 22.9643 49.1301 20.6547C51.5987 18.4005 52.954 15.3579 52.954 12.1079V12.0388C52.9402 5.17923 47.1317 0 39.4009 0H39.4078ZM47.512 12.1702C47.512 14.217 46.7168 16.1116 45.2716 17.5084C43.7919 18.9398 41.7174 19.7281 39.4217 19.7281C34.7818 19.7281 31.2829 16.4643 31.2759 12.1218V12.0595C31.2759 10.0127 32.0712 8.11114 33.5164 6.70742C35.0031 5.26913 37.0706 4.47392 39.3456 4.467L39.3594 4.05903V4.467C43.9993 4.467 47.5051 7.75156 47.512 12.1079V12.1702ZM101.939 13.7537C101.939 17.5361 99.8438 19.6175 96.0198 19.6244H96.006C94.1321 19.6244 92.6592 19.1196 91.6427 18.11C90.5986 17.0728 90.0592 15.5584 90.0592 13.6085V0.297339H84.8178V13.7744C84.8316 20.3574 88.8837 24.126 95.9299 24.126H95.9576C103.094 24.126 107.18 20.2606 107.174 13.5462V0.297339H101.939V13.7468V13.7537ZM132.648 0.25585L125.173 10.6835L117.746 0.25585H112.415V23.7456H117.587V8.38773L125.166 18.4419L132.765 8.30475V23.7456H138V0.25585H132.641H132.648Z" fill="#0E5E77"/>
<path d="M4.20423 32.244H2.25424V42.2498H10.0335V40.6525H4.20423V32.2509V32.244ZM14.6042 34.2078H15.4271C15.4893 34.9477 15.0329 35.3972 14.0648 35.5493L14.2723 36.2892C15.8696 36.1717 16.7132 35.5009 16.7132 33.9174V32.244H14.6042V34.2009V34.2078ZM27.0025 37.9903H32.5621V36.4206H27.0025V33.8206H33.2743V32.2509H25.0526V42.2567H33.3504V40.6871H26.9956V37.9972L27.0025 37.9903ZM46.7376 32.244H42.3674V42.2498H44.3174V39.0344H46.5163C48.9572 39.0344 50.9487 37.8589 50.9487 35.6185V35.5908C50.9487 33.5786 49.3306 32.244 46.7376 32.244ZM48.9711 35.66C48.9711 36.7041 48.0514 37.444 46.5785 37.444H44.3105V33.8414H46.5785C48.0376 33.8414 48.9711 34.4568 48.9711 35.6254V35.6531V35.66ZM62.3513 32.1749L57.4694 42.2498H59.4678L60.6088 39.8365H65.8503L66.9774 42.2498H69.038L64.1561 32.1749H62.3513ZM61.321 38.2807L63.2226 34.277L65.138 38.2807H61.321ZM85.3433 35.4318V35.4041C85.3433 34.5328 85.0114 33.786 84.4236 33.2467C83.7114 32.6174 82.6188 32.244 81.222 32.244H76.2779V42.2498H78.2279V38.7647H80.6688L83.3933 42.2498H85.7028L82.7087 38.4605C84.2438 38.0594 85.3364 37.0706 85.3364 35.4318H85.3433ZM78.2279 37.2089V33.8483H81.063C82.5013 33.8483 83.3587 34.436 83.3587 35.5078V35.5355C83.3587 36.552 82.4736 37.2089 81.0768 37.2089H78.2279ZM98.4884 38.1908H101.324V40.0647C100.646 40.5211 99.6916 40.8254 98.6475 40.8254C96.3794 40.8254 94.8789 39.311 94.8789 37.2504V37.2227C94.8789 35.3073 96.4347 33.6892 98.4746 33.6892C99.8852 33.6892 100.722 34.1041 101.579 34.761L102.817 33.4334C101.676 32.5621 100.487 32.0781 98.5576 32.0781C95.2177 32.0781 92.839 34.4499 92.839 37.2504V37.278C92.839 40.1961 95.1209 42.4227 98.5922 42.4227C100.556 42.4227 102.126 41.7105 103.218 40.8669V36.6626H98.4954V38.1908H98.4884ZM118.818 39.1658L112.878 32.2509H111.073V42.2567H112.989V35.1413L119.102 42.2567H120.734V32.2509H118.818V39.1658ZM131.59 40.6802V37.9903H137.149V36.4206H131.59V33.8206H137.862V32.2509H129.64V42.2567H137.938V40.6871H131.583L131.59 40.6802ZM31.6286 30.7642L31.3658 29.4366L26.8228 30.3286L27.0855 31.6563L31.6286 30.7642Z" fill="#B16454"/>
<path d="M86.664 29.0909H80.0396L79.922 28.9387C79.839 28.8281 71.7486 18.5526 69.5221 17.1074C68.2774 16.3191 66.6178 15.925 64.6056 15.925H57.096V11.1814H71.3199C73.2976 11.1814 74.9087 9.8053 74.9087 8.10425C74.9087 6.40319 73.2976 5.03405 71.3199 5.03405H57.0822V0.297363H71.3199C76.2226 0.297363 80.2055 3.79629 80.2055 8.09733C80.2055 11.1675 78.1311 13.9473 74.9779 15.1989C79.196 19.6037 86.0762 28.3371 86.1523 28.427L86.6709 29.0909H86.664Z" fill="#B16454"/>
</svg>
