<svg
  viewBox="0 0 128 128"
  fill="none"
  xmlns="http://www.w3.org/2000/svg"
>
  <rect width="128" height="128" rx="32" fill="white" />
  <g clip-path="url(#clip0_10019_681)">
    <path
      d="M113.365 85.0404H71.0327V99.0637H113.365V85.0404Z"
      fill="#E10500"
    />
    <path
      d="M56.926 85.0404H14.5938V99.0637H56.926V85.0404Z"
      fill="#E10500"
    />
    <path
      d="M99.2477 71.0086H85.1399V85.0319H99.2477V71.0086Z"
      fill="#FA500F"
    />
    <path
      d="M71.0282 71.0086H56.9204V85.0319H71.0282V71.0086Z"
      fill="#FA500F"
    />
    <path
      d="M42.8089 71.0086H28.7012V85.0319H42.8089V71.0086Z"
      fill="#FA500F"
    />
    <path
      d="M99.2477 28.9375H85.1399V42.9608H99.2477V28.9375Z"
      fill="#FFD800"
    />
    <path
      d="M99.2483 42.9597H71.0327V56.9829H99.2483V42.9597Z"
      fill="#FFAF00"
    />
    <path
      d="M42.8089 28.9375H28.7012V42.9608H42.8089V28.9375Z"
      fill="#FFD800"
    />
    <path
      d="M56.9169 42.9597H28.7012V56.9829H56.9169V42.9597Z"
      fill="#FFAF00"
    />
    <path
      d="M99.2492 56.9819H28.7012V71.005H99.2492V56.9819Z"
      fill="#FF8205"
    />
  </g>
  <defs>
    <clipPath id="clip0_10019_681">
      <rect
        width="98.8125"
        height="70.125"
        fill="white"
        transform="translate(14.5938 28.9375)"
      />
    </clipPath>
  </defs>
</svg>